<mxfile host="www.draw.io" modified="2019-11-08T16:02:14.411Z" agent="Mozilla/5.0 (Windows NT 10.0; Win64; x64) AppleWebKit/537.36 (KHTML, like Gecko) Chrome/78.0.3904.87 Safari/537.36" etag="0NpX8GrOR_A_bV01d3Nk" version="12.2.3" type="github" pages="1">
  <diagram id="07TFewHx925DniITfhkE" name="Page-1">
    <mxGraphModel dx="1346" dy="739" grid="1" gridSize="10" guides="1" tooltips="1" connect="1" arrows="1" fold="1" page="1" pageScale="1" pageWidth="850" pageHeight="1100" math="0" shadow="0">
      <root>
        <mxCell id="0"/>
        <mxCell id="1" parent="0"/>
        <mxCell id="RJQnB6LMPSj4QXTXsC4M-6" style="edgeStyle=orthogonalEdgeStyle;rounded=0;orthogonalLoop=1;jettySize=auto;html=1;exitX=1;exitY=0.5;exitDx=0;exitDy=0;entryX=0;entryY=0.5;entryDx=0;entryDy=0;" parent="1" source="RJQnB6LMPSj4QXTXsC4M-1" target="RJQnB6LMPSj4QXTXsC4M-4" edge="1">
          <mxGeometry relative="1" as="geometry"/>
        </mxCell>
        <mxCell id="RJQnB6LMPSj4QXTXsC4M-7" value="on any &lt;br&gt;touched" style="text;html=1;resizable=0;points=[];align=center;verticalAlign=middle;labelBackgroundColor=#ffffff;" parent="RJQnB6LMPSj4QXTXsC4M-6" vertex="1" connectable="0">
          <mxGeometry x="-0.2667" relative="1" as="geometry">
            <mxPoint as="offset"/>
          </mxGeometry>
        </mxCell>
        <mxCell id="RJQnB6LMPSj4QXTXsC4M-1" value="docker-image&lt;br&gt;workflow" style="rounded=1;whiteSpace=wrap;html=1;fillColor=#e1d5e7;strokeColor=#9673a6;" parent="1" vertex="1">
          <mxGeometry x="130" y="290" width="120" height="60" as="geometry"/>
        </mxCell>
        <mxCell id="RJQnB6LMPSj4QXTXsC4M-2" value="windows&lt;br&gt;workflow" style="rounded=1;whiteSpace=wrap;html=1;fillColor=#e1d5e7;strokeColor=#9673a6;" parent="1" vertex="1">
          <mxGeometry x="130" y="690" width="120" height="60" as="geometry"/>
        </mxCell>
        <mxCell id="RJQnB6LMPSj4QXTXsC4M-30" style="edgeStyle=orthogonalEdgeStyle;rounded=0;orthogonalLoop=1;jettySize=auto;html=1;exitX=1;exitY=0.5;exitDx=0;exitDy=0;" parent="1" source="RJQnB6LMPSj4QXTXsC4M-4" edge="1">
          <mxGeometry relative="1" as="geometry">
            <mxPoint x="630" y="320" as="targetPoint"/>
          </mxGeometry>
        </mxCell>
        <mxCell id="RJQnB6LMPSj4QXTXsC4M-31" value="yes?&lt;br&gt;pull" style="text;html=1;resizable=0;points=[];align=center;verticalAlign=middle;labelBackgroundColor=#ffffff;" parent="RJQnB6LMPSj4QXTXsC4M-30" vertex="1" connectable="0">
          <mxGeometry x="-0.2967" y="-2" relative="1" as="geometry">
            <mxPoint as="offset"/>
          </mxGeometry>
        </mxCell>
        <mxCell id="RJQnB6LMPSj4QXTXsC4M-4" value="does&lt;br&gt;image&lt;br&gt;exists" style="rhombus;whiteSpace=wrap;html=1;" parent="1" vertex="1">
          <mxGeometry x="459" y="280" width="80" height="80" as="geometry"/>
        </mxCell>
        <mxCell id="RJQnB6LMPSj4QXTXsC4M-9" value="base&lt;br&gt;Dockerfile" style="shape=note;whiteSpace=wrap;html=1;backgroundOutline=1;darkOpacity=0.05;" parent="1" vertex="1">
          <mxGeometry x="340" y="420" width="80" height="100" as="geometry"/>
        </mxCell>
        <mxCell id="RJQnB6LMPSj4QXTXsC4M-10" value="py&lt;br&gt;Dockerfile" style="shape=note;whiteSpace=wrap;html=1;backgroundOutline=1;darkOpacity=0.05;" parent="1" vertex="1">
          <mxGeometry x="250" y="420" width="80" height="100" as="geometry"/>
        </mxCell>
        <mxCell id="RJQnB6LMPSj4QXTXsC4M-20" value="" style="edgeStyle=elbowEdgeStyle;elbow=vertical;endArrow=classic;html=1;dashed=1;exitX=0.5;exitY=1;exitDx=0;exitDy=0;" parent="1" source="RJQnB6LMPSj4QXTXsC4M-1" edge="1">
          <mxGeometry width="50" height="50" relative="1" as="geometry">
            <mxPoint x="220" y="350" as="sourcePoint"/>
            <mxPoint x="310" y="360" as="targetPoint"/>
            <Array as="points">
              <mxPoint x="270" y="410"/>
              <mxPoint x="290" y="240"/>
            </Array>
          </mxGeometry>
        </mxCell>
        <mxCell id="RJQnB6LMPSj4QXTXsC4M-21" value="" style="endArrow=classic;html=1;dashed=1;" parent="1" edge="1">
          <mxGeometry width="50" height="50" relative="1" as="geometry">
            <mxPoint x="336" y="410" as="sourcePoint"/>
            <mxPoint x="336" y="360" as="targetPoint"/>
          </mxGeometry>
        </mxCell>
        <mxCell id="RJQnB6LMPSj4QXTXsC4M-22" value="" style="endArrow=classic;html=1;dashed=1;" parent="1" edge="1">
          <mxGeometry width="50" height="50" relative="1" as="geometry">
            <mxPoint x="360" y="410" as="sourcePoint"/>
            <mxPoint x="360" y="360" as="targetPoint"/>
          </mxGeometry>
        </mxCell>
        <mxCell id="RJQnB6LMPSj4QXTXsC4M-24" value="rez-test-base" style="html=1;verticalLabelPosition=bottom;align=center;labelBackgroundColor=#ffffff;verticalAlign=top;strokeWidth=2;strokeColor=#0080F0;shadow=0;dashed=0;shape=mxgraph.ios7.icons.data;" parent="1" vertex="1">
          <mxGeometry x="468" y="440" width="62" height="60" as="geometry"/>
        </mxCell>
        <mxCell id="RJQnB6LMPSj4QXTXsC4M-25" value="rez-test-py" style="html=1;verticalLabelPosition=bottom;align=center;labelBackgroundColor=#ffffff;verticalAlign=top;strokeWidth=2;strokeColor=#0080F0;shadow=0;dashed=0;shape=mxgraph.ios7.icons.data;" parent="1" vertex="1">
          <mxGeometry x="638" y="440" width="62" height="60" as="geometry"/>
        </mxCell>
        <mxCell id="RJQnB6LMPSj4QXTXsC4M-32" style="edgeStyle=orthogonalEdgeStyle;rounded=0;orthogonalLoop=1;jettySize=auto;html=1;exitX=1;exitY=0.5;exitDx=0;exitDy=0;endArrow=oval;endFill=0;" parent="1" source="RJQnB6LMPSj4QXTXsC4M-34" edge="1">
          <mxGeometry relative="1" as="geometry">
            <mxPoint x="800" y="320" as="targetPoint"/>
          </mxGeometry>
        </mxCell>
        <mxCell id="RJQnB6LMPSj4QXTXsC4M-33" value="yes?&lt;br&gt;done" style="text;html=1;resizable=0;points=[];align=center;verticalAlign=middle;labelBackgroundColor=#ffffff;" parent="RJQnB6LMPSj4QXTXsC4M-32" vertex="1" connectable="0">
          <mxGeometry x="-0.2967" y="-2" relative="1" as="geometry">
            <mxPoint as="offset"/>
          </mxGeometry>
        </mxCell>
        <mxCell id="RJQnB6LMPSj4QXTXsC4M-34" value="does&lt;br&gt;image&lt;br&gt;exists" style="rhombus;whiteSpace=wrap;html=1;" parent="1" vertex="1">
          <mxGeometry x="629" y="280" width="80" height="80" as="geometry"/>
        </mxCell>
        <mxCell id="RJQnB6LMPSj4QXTXsC4M-37" value="" style="endArrow=classic;html=1;exitX=0.5;exitY=1;exitDx=0;exitDy=0;" parent="1" source="RJQnB6LMPSj4QXTXsC4M-4" edge="1">
          <mxGeometry width="50" height="50" relative="1" as="geometry">
            <mxPoint x="130" y="660" as="sourcePoint"/>
            <mxPoint x="499" y="430" as="targetPoint"/>
          </mxGeometry>
        </mxCell>
        <mxCell id="RJQnB6LMPSj4QXTXsC4M-38" value="no?&lt;br&gt;compose" style="text;html=1;resizable=0;points=[];align=center;verticalAlign=middle;labelBackgroundColor=#ffffff;" parent="RJQnB6LMPSj4QXTXsC4M-37" vertex="1" connectable="0">
          <mxGeometry x="-0.44" y="-1" relative="1" as="geometry">
            <mxPoint as="offset"/>
          </mxGeometry>
        </mxCell>
        <mxCell id="RJQnB6LMPSj4QXTXsC4M-39" value="" style="endArrow=classic;html=1;exitX=0.5;exitY=1;exitDx=0;exitDy=0;" parent="1" edge="1">
          <mxGeometry width="50" height="50" relative="1" as="geometry">
            <mxPoint x="668.5" y="360" as="sourcePoint"/>
            <mxPoint x="668.5" y="430" as="targetPoint"/>
          </mxGeometry>
        </mxCell>
        <mxCell id="RJQnB6LMPSj4QXTXsC4M-40" value="no?&lt;br&gt;compose" style="text;html=1;resizable=0;points=[];align=center;verticalAlign=middle;labelBackgroundColor=#ffffff;" parent="RJQnB6LMPSj4QXTXsC4M-39" vertex="1" connectable="0">
          <mxGeometry x="-0.44" y="-1" relative="1" as="geometry">
            <mxPoint as="offset"/>
          </mxGeometry>
        </mxCell>
        <mxCell id="RJQnB6LMPSj4QXTXsC4M-41" value="" style="curved=1;endArrow=classic;html=1;dashed=1;fillColor=#f8cecc;strokeColor=#b85450;" parent="1" edge="1">
          <mxGeometry width="50" height="50" relative="1" as="geometry">
            <mxPoint x="790" y="360" as="sourcePoint"/>
            <mxPoint x="210" y="780" as="targetPoint"/>
            <Array as="points">
              <mxPoint x="820" y="510"/>
              <mxPoint x="820" y="730"/>
              <mxPoint x="800" y="860"/>
              <mxPoint x="720" y="1000"/>
              <mxPoint x="330" y="1000"/>
            </Array>
          </mxGeometry>
        </mxCell>
        <mxCell id="RJQnB6LMPSj4QXTXsC4M-42" value="A) missing&lt;br&gt;dependency" style="text;html=1;resizable=0;points=[];align=center;verticalAlign=middle;labelBackgroundColor=#ffffff;" parent="RJQnB6LMPSj4QXTXsC4M-41" vertex="1" connectable="0">
          <mxGeometry x="-0.0795" y="3" relative="1" as="geometry">
            <mxPoint as="offset"/>
          </mxGeometry>
        </mxCell>
        <mxCell id="RJQnB6LMPSj4QXTXsC4M-43" value="" style="endArrow=classic;html=1;" parent="1" edge="1">
          <mxGeometry width="50" height="50" relative="1" as="geometry">
            <mxPoint x="670" y="530" as="sourcePoint"/>
            <mxPoint x="670" y="700" as="targetPoint"/>
          </mxGeometry>
        </mxCell>
        <mxCell id="RJQnB6LMPSj4QXTXsC4M-44" value="pull" style="text;html=1;resizable=0;points=[];align=center;verticalAlign=middle;labelBackgroundColor=#ffffff;" parent="RJQnB6LMPSj4QXTXsC4M-43" vertex="1" connectable="0">
          <mxGeometry x="0.2364" y="-4" relative="1" as="geometry">
            <mxPoint y="50" as="offset"/>
          </mxGeometry>
        </mxCell>
        <mxCell id="RJQnB6LMPSj4QXTXsC4M-49" value="" style="edgeStyle=segmentEdgeStyle;endArrow=classic;html=1;exitX=1;exitY=0.5;exitDx=0;exitDy=0;" parent="1" source="RJQnB6LMPSj4QXTXsC4M-2" edge="1">
          <mxGeometry width="50" height="50" relative="1" as="geometry">
            <mxPoint x="320" y="840" as="sourcePoint"/>
            <mxPoint x="670" y="810" as="targetPoint"/>
            <Array as="points">
              <mxPoint x="670" y="720"/>
              <mxPoint x="670" y="790"/>
            </Array>
          </mxGeometry>
        </mxCell>
        <mxCell id="RJQnB6LMPSj4QXTXsC4M-52" value="Tagged as latest&lt;br&gt;rev. of any file" style="html=1;shadow=0;dashed=0;align=center;verticalAlign=middle;shape=mxgraph.arrows2.arrow;dy=0;dx=10;notch=0;flipH=0;rotation=-45;fillColor=#fff2cc;strokeColor=#d6b656;" parent="1" vertex="1">
          <mxGeometry x="549" y="615" width="100" height="30" as="geometry"/>
        </mxCell>
        <mxCell id="RJQnB6LMPSj4QXTXsC4M-55" value="" style="edgeStyle=segmentEdgeStyle;endArrow=classic;html=1;fillColor=#dae8fc;strokeColor=#6c8ebf;dashed=1;" parent="1" edge="1">
          <mxGeometry width="50" height="50" relative="1" as="geometry">
            <mxPoint x="290" y="530" as="sourcePoint"/>
            <mxPoint x="530" y="650" as="targetPoint"/>
            <Array as="points">
              <mxPoint x="290" y="650"/>
              <mxPoint x="510" y="650"/>
            </Array>
          </mxGeometry>
        </mxCell>
        <mxCell id="RJQnB6LMPSj4QXTXsC4M-57" value="" style="edgeStyle=segmentEdgeStyle;endArrow=classic;html=1;fillColor=#dae8fc;strokeColor=#6c8ebf;dashed=1;" parent="1" edge="1">
          <mxGeometry width="50" height="50" relative="1" as="geometry">
            <mxPoint x="160" y="360" as="sourcePoint"/>
            <mxPoint x="530" y="670" as="targetPoint"/>
            <Array as="points">
              <mxPoint x="160" y="670"/>
              <mxPoint x="510" y="670"/>
            </Array>
          </mxGeometry>
        </mxCell>
        <mxCell id="RJQnB6LMPSj4QXTXsC4M-58" value="run test&lt;br&gt;in image" style="shape=process;whiteSpace=wrap;html=1;backgroundOutline=1;" parent="1" vertex="1">
          <mxGeometry x="609" y="820" width="120" height="60" as="geometry"/>
        </mxCell>
        <mxCell id="RJQnB6LMPSj4QXTXsC4M-59" value="Tagged as latest&lt;br&gt;rev. of any file" style="html=1;shadow=0;dashed=0;align=center;verticalAlign=middle;shape=mxgraph.arrows2.arrow;dy=0;dx=10;notch=0;flipH=0;rotation=-45;fillColor=#fff2cc;strokeColor=#d6b656;" parent="1" vertex="1">
          <mxGeometry x="425" y="555" width="100" height="30" as="geometry"/>
        </mxCell>
        <mxCell id="RJQnB6LMPSj4QXTXsC4M-62" value="" style="edgeStyle=segmentEdgeStyle;endArrow=classic;html=1;fillColor=#dae8fc;strokeColor=#6c8ebf;dashed=1;" parent="1" edge="1">
          <mxGeometry width="50" height="50" relative="1" as="geometry">
            <mxPoint x="380" y="530" as="sourcePoint"/>
            <mxPoint x="430" y="570" as="targetPoint"/>
            <Array as="points">
              <mxPoint x="380" y="570"/>
            </Array>
          </mxGeometry>
        </mxCell>
        <mxCell id="RJQnB6LMPSj4QXTXsC4M-63" value="" style="edgeStyle=segmentEdgeStyle;endArrow=classic;html=1;fillColor=#dae8fc;strokeColor=#6c8ebf;dashed=1;" parent="1" edge="1">
          <mxGeometry width="50" height="50" relative="1" as="geometry">
            <mxPoint x="180" y="360" as="sourcePoint"/>
            <mxPoint x="410" y="600" as="targetPoint"/>
            <Array as="points">
              <mxPoint x="180" y="365"/>
              <mxPoint x="180" y="600"/>
            </Array>
          </mxGeometry>
        </mxCell>
        <mxCell id="RJQnB6LMPSj4QXTXsC4M-64" value="B)&lt;br&gt;dependency&lt;br&gt;in jobs&lt;br&gt;means one&lt;br&gt;workflow" style="ellipse;whiteSpace=wrap;html=1;aspect=fixed;fillColor=#f8cecc;strokeColor=#b85450;" parent="1" vertex="1">
          <mxGeometry x="125" y="460" width="90" height="90" as="geometry"/>
        </mxCell>
        <mxCell id="RJQnB6LMPSj4QXTXsC4M-65" value="C)&lt;br&gt;Dependency in jobs" style="shape=callout;whiteSpace=wrap;html=1;perimeter=calloutPerimeter;fillColor=#d5e8d4;strokeColor=#82b366;" parent="1" vertex="1">
          <mxGeometry x="525" y="210" width="120" height="80" as="geometry"/>
        </mxCell>
        <mxCell id="K9zQMvDWbfIxNq4mi6Cr-1" value="Rez Windows Docker Workflow" style="text;html=1;strokeColor=none;fillColor=none;align=left;verticalAlign=middle;whiteSpace=wrap;rounded=0;fontSize=22;" vertex="1" parent="1">
          <mxGeometry x="50" y="160" width="210" height="20" as="geometry"/>
        </mxCell>
        <mxCell id="K9zQMvDWbfIxNq4mi6Cr-2" value="Overview and current limitations" style="text;html=1;strokeColor=none;fillColor=none;align=left;verticalAlign=middle;whiteSpace=wrap;rounded=0;fontSize=11;" vertex="1" parent="1">
          <mxGeometry x="50" y="200" width="210" height="20" as="geometry"/>
        </mxCell>
      </root>
    </mxGraphModel>
  </diagram>
</mxfile>
